<svg xmlns="http://www.w3.org/2000/svg" viewBox="0 0 320 240">
  <defs>
    <linearGradient id="bg" x1="0" y1="0" x2="1" y2="1">
      <stop offset="0%" stop-color="#faf4ea"/>
      <stop offset="100%" stop-color="#f7e4d3"/>
    </linearGradient>
  </defs>
  <rect width="320" height="240" rx="28" fill="url(#bg)"/>
  <ellipse cx="160" cy="196" rx="92" ry="18" fill="#dcc7b8"/>
  <rect x="88" y="146" width="144" height="28" rx="14" fill="#f0d9c0"/>
  <rect x="104" y="104" width="112" height="52" rx="18" fill="#fff6ef"/>
  <path d="M104 126C122 136 140 116 160 126C178 136 196 116 216 126" fill="none" stroke="#f2b2a7" stroke-width="10" stroke-linecap="round"/>
  <circle cx="132" cy="116" r="8" fill="#f3c94b"/>
  <circle cx="160" cy="112" r="8" fill="#e98582"/>
  <circle cx="188" cy="116" r="8" fill="#7cc6a6"/>
  <rect x="154" y="76" width="12" height="28" rx="6" fill="#7e5a45"/>
  <path d="M160 64C166 70 165 79 160 84C155 79 154 70 160 64Z" fill="#ffb347"/>
</svg>
